<svg width="30" height="22" viewBox="0 0 30 22" fill="none" xmlns="http://www.w3.org/2000/svg">
<path d="M12 20.4976C11.9451 20.4976 11.891 20.4856 11.8414 20.4626L11.8251 20.4517L11.7963 20.4394L11.793 20.4376C11.7928 20.4375 11.7925 20.4373 11.7922 20.4372C11.6468 20.3572 11.5026 20.275 11.3595 20.1909C9.61461 19.1539 7.98391 17.9359 6.49445 16.557C3.84361 14.0834 1.125 10.4909 1.125 6.12319C1.125 3.00322 3.75549 0.498191 6.96933 0.498197L6.97178 0.498185C7.86117 0.493828 8.74009 0.690036 9.54319 1.07221C10.3463 1.45439 11.0529 2.01271 11.6104 2.70564L12 3.18977L12.3896 2.70564C12.9472 2.01257 13.654 1.45416 14.4573 1.07198C15.2606 0.689795 16.1397 0.493666 17.0293 0.498191H17.0318C20.2444 0.498191 22.875 3.00316 22.875 6.12319C22.875 10.492 20.1565 14.0845 17.5059 16.5555C16.0161 17.9348 14.3851 19.1531 12.6397 20.1902C12.4969 20.2746 12.3528 20.357 12.2075 20.4373C12.2075 20.4373 12.2075 20.4373 12.2075 20.4373C12.207 20.4376 12.2066 20.4378 12.2061 20.4381L12.1766 20.4537C12.1222 20.4825 12.0616 20.4976 12 20.4976Z" fill="white" stroke="black"/>
<path d="M21.3933 18.9649L22.3384 19.1927L25.5284 12.9593L25.9009 12.2316H25.0833H23.3833V8.69823L22.4414 8.46429L19.1414 14.6976L18.7529 15.4316H19.5833H21.3933V18.9649ZM22.3333 20.6649C21.384 20.6649 20.4984 20.4851 19.6714 20.1283C18.8348 19.7673 18.112 19.2798 17.4986 18.6663C16.8851 18.0529 16.3976 17.3301 16.0366 16.4935C15.6798 15.6665 15.5 14.7809 15.5 13.8316C15.5 12.8822 15.6798 11.9966 16.0366 11.1697C16.3976 10.333 16.8851 9.61027 17.4986 8.99678C18.112 8.3833 18.8348 7.89582 19.6714 7.53481C20.4984 7.17799 21.384 6.99823 22.3333 6.99823C23.2827 6.99823 24.1683 7.17799 24.9952 7.53481C25.8319 7.89582 26.5546 8.3833 27.1681 8.99678C27.7816 9.61027 28.2691 10.333 28.6301 11.1697C28.9869 11.9966 29.1667 12.8822 29.1667 13.8316C29.1667 14.7809 28.9869 15.6665 28.6301 16.4935C28.2691 17.3301 27.7816 18.0529 27.1681 18.6663C26.5546 19.2798 25.8319 19.7673 24.9952 20.1283C24.1683 20.4851 23.2827 20.6649 22.3333 20.6649Z" fill="#894189" stroke="black"/>
<path d="M21.7667 18.4982L22.7118 18.726L25.6118 13.0593L25.9842 12.3315H25.1667H23.6667V9.16486L22.7248 8.93091L19.7248 14.5976L19.3362 15.3315H20.1667H21.7667V18.4982ZM22.6667 19.9982C21.8095 19.9982 21.0106 19.8359 20.2648 19.5141C19.5092 19.1881 18.857 18.7481 18.3036 18.1946C17.7501 17.6412 17.3101 16.9889 16.9841 16.2334C16.6623 15.4876 16.5 14.6887 16.5 13.8315C16.5 12.9744 16.6623 12.1754 16.9841 11.4296C17.3101 10.6741 17.7501 10.0219 18.3036 9.46841C18.857 8.91492 19.5092 8.47495 20.2648 8.14894C21.0106 7.82712 21.8095 7.66486 22.6667 7.66486C23.5238 7.66486 24.3228 7.82712 25.0686 8.14894C25.8241 8.47495 26.4763 8.91492 27.0298 9.46841C27.5833 10.0219 28.0232 10.6741 28.3492 11.4296C28.6711 12.1754 28.8333 12.9744 28.8333 13.8315C28.8333 14.6887 28.6711 15.4876 28.3492 16.2334C28.0232 16.9889 27.5833 17.6412 27.0298 18.1946C26.4763 18.7481 25.8241 19.1881 25.0686 19.5141C24.3228 19.8359 23.5238 19.9982 22.6667 19.9982Z" fill="white" stroke="black"/>
</svg>
